<svg width="253" height="315" viewBox="0 0 253 315" fill="none" xmlns="http://www.w3.org/2000/svg">
<path fill-rule="evenodd" clip-rule="evenodd" d="M5 0C2.23858 0 0 2.23857 0 5V270C0 272.761 2.23858 275 5 275H16V21C16 18.2386 18.2386 16 21 16H212.5V5C212.5 2.23858 210.261 0 207.5 0H5Z" fill="#173F5F"/>
<path fill-rule="evenodd" clip-rule="evenodd" d="M25 20C22.2386 20 20 22.2386 20 25V290C20 292.761 22.2386 295 25 295H36V41C36 38.2386 38.2386 36 41 36H232.5V25C232.5 22.2386 230.261 20 227.5 20H25Z" fill="#173F5F"/>
<rect x="40" y="40" width="212.5" height="275" rx="5" fill="#173F5F"/>
<path d="M133.502 208.4C122.968 208.4 117.702 207.133 117.702 204.6V197C117.702 191 122.702 183.333 132.702 174C136.435 170.533 139.835 166.6 142.902 162.2C146.102 157.8 147.702 153.8 147.702 150.2C147.702 143.533 143.835 140.2 136.102 140.2C128.502 140.2 120.835 142.733 113.102 147.8C108.035 142.733 104.502 137 102.502 130.6C101.702 128.467 101.302 126.6 101.302 125C101.302 123.267 101.635 121.667 102.302 120.2C103.368 116.733 108.302 113.467 117.102 110.4C126.035 107.333 135.435 105.8 145.302 105.8C160.235 105.8 171.435 109 178.902 115.4C186.368 121.8 190.102 130.533 190.102 141.6C190.102 146.667 188.835 151.667 186.302 156.6C183.902 161.4 180.902 165.667 177.302 169.4C173.835 173 170.368 176.4 166.902 179.6C158.502 187.6 154.302 193.667 154.302 197.8V203.8C154.302 205.4 151.835 206.6 146.902 207.4C141.968 208.067 137.502 208.4 133.502 208.4ZM153.102 248.8C153.102 249.6 147.568 250 136.502 250C125.568 250 120.102 249.667 120.102 249V217.6C120.102 216.533 125.568 216 136.502 216C147.568 216 153.102 216.333 153.102 217V248.8Z" fill="#64B6AC"/>
</svg>
